<?xml version="1.0" standalone="no"?><svg xmlns:xlink="http://www.w3.org/1999/xlink" xmlns="http://www.w3.org/2000/svg" viewBox="0 0 1000 583.3333333333333" preserveAspectRatio="xMaxYMax slice"><g transform="scale(1.24750499001996)"><rect x="0" y="0" width="801.5999999999999" height="534.4" fill="#000000"/><g transform="translate(0,0) scale(3.34) rotate(0)"><path d="M10 5L5 0L0 5L5 10L0 15L5 20L10 15L15 20L20 15L15 10L20 5L15 0L10 5Z" fill="#2e0a12"/></g><g transform="translate(66.8,0) scale(3.34) rotate(0)"><path d="M10 5L5 0L0 5L5 10L0 15L5 20L10 15L15 20L20 15L15 10L20 5L15 0L10 5Z" fill="#02040f"/></g><g transform="translate(133.6,0) scale(3.34) rotate(0)"><path d="M10 5L5 0L0 5L5 10L0 15L5 20L10 15L15 20L20 15L15 10L20 5L15 0L10 5Z" fill="#0c1f6f"/></g><g transform="translate(200.4,0) scale(3.34) rotate(0)"><path d="M10 5L5 0L0 5L5 10L0 15L5 20L10 15L15 20L20 15L15 10L20 5L15 0L10 5Z" fill="#26080f"/></g><g transform="translate(267.2,0) scale(3.34) rotate(0)"><path d="M10 5L5 0L0 5L5 10L0 15L5 20L10 15L15 20L20 15L15 10L20 5L15 0L10 5Z" fill="#f43361"/></g><g transform="translate(334,0) scale(3.34) rotate(0)"><path d="M10 5L5 0L0 5L5 10L0 15L5 20L10 15L15 20L20 15L15 10L20 5L15 0L10 5Z" fill="#112ea3"/></g><g transform="translate(400.8,0) scale(3.34) rotate(0)"><path d="M10 5L5 0L0 5L5 10L0 15L5 20L10 15L15 20L20 15L15 10L20 5L15 0L10 5Z" fill="#2c0911"/></g><g transform="translate(467.6,0) scale(3.34) rotate(0)"><path d="M10 5L5 0L0 5L5 10L0 15L5 20L10 15L15 20L20 15L15 10L20 5L15 0L10 5Z" fill="#1434ba"/></g><g transform="translate(534.4,0) scale(3.34) rotate(0)"><path d="M10 5L5 0L0 5L5 10L0 15L5 20L10 15L15 20L20 15L15 10L20 5L15 0L10 5Z" fill="#0b1d68"/></g><g transform="translate(601.2,0) scale(3.34) rotate(0)"><path d="M10 5L5 0L0 5L5 10L0 15L5 20L10 15L15 20L20 15L15 10L20 5L15 0L10 5Z" fill="#ce2b52"/></g><rect x="668" y="0" width="66.8" height="66.8" fill="#000000"/><g transform="translate(668,0) scale(1.67) rotate(0)"><path d="M10 5L5 0L0 5L5 10L0 15L5 20L10 15L15 20L20 15L15 10L20 5L15 0L10 5Z" fill="#a62242"/></g><g transform="translate(701.4,0) scale(1.67) rotate(0)"><path d="M10 5L5 0L0 5L5 10L0 15L5 20L10 15L15 20L20 15L15 10L20 5L15 0L10 5Z" fill="#010207"/></g><g transform="translate(668,33.4) scale(1.67) rotate(0)"><path d="M10 5L5 0L0 5L5 10L0 15L5 20L10 15L15 20L20 15L15 10L20 5L15 0L10 5Z" fill="#110407"/></g><g transform="translate(701.4,33.4) scale(1.67) rotate(0)"><path d="M10 5L5 0L0 5L5 10L0 15L5 20L10 15L15 20L20 15L15 10L20 5L15 0L10 5Z" fill="#611426"/></g><g transform="translate(734.8,0) scale(3.34) rotate(0)"><path d="M10 5L5 0L0 5L5 10L0 15L5 20L10 15L15 20L20 15L15 10L20 5L15 0L10 5Z" fill="#6f172c"/></g><g transform="translate(0,66.8) scale(3.34) rotate(0)"><path d="M10 5L5 0L0 5L5 10L0 15L5 20L10 15L15 20L20 15L15 10L20 5L15 0L10 5Z" fill="#571223"/></g><rect x="66.8" y="66.8" width="66.8" height="66.8" fill="#000000"/><g transform="translate(66.8,66.8) scale(1.67) rotate(0)"><path d="M10 5L5 0L0 5L5 10L0 15L5 20L10 15L15 20L20 15L15 10L20 5L15 0L10 5Z" fill="#0d2177"/></g><g transform="translate(100.2,66.8) scale(1.67) rotate(0)"><path d="M10 5L5 0L0 5L5 10L0 15L5 20L10 15L15 20L20 15L15 10L20 5L15 0L10 5Z" fill="#000001"/></g><g transform="translate(66.8,100.2) scale(1.67) rotate(0)"><path d="M10 5L5 0L0 5L5 10L0 15L5 20L10 15L15 20L20 15L15 10L20 5L15 0L10 5Z" fill="#06113b"/></g><g transform="translate(100.2,100.2) scale(1.67) rotate(0)"><path d="M10 5L5 0L0 5L5 10L0 15L5 20L10 15L15 20L20 15L15 10L20 5L15 0L10 5Z" fill="#0e2585"/></g><rect x="133.6" y="66.8" width="66.8" height="66.8" fill="#000000"/><g transform="translate(133.6,66.8) scale(1.67) rotate(0)"><path d="M10 5L5 0L0 5L5 10L0 15L5 20L10 15L15 20L20 15L15 10L20 5L15 0L10 5Z" fill="#061038"/></g><g transform="translate(167,66.8) scale(1.67) rotate(0)"><path d="M10 5L5 0L0 5L5 10L0 15L5 20L10 15L15 20L20 15L15 10L20 5L15 0L10 5Z" fill="#e02f59"/></g><g transform="translate(133.6,100.2) scale(1.67) rotate(0)"><path d="M10 5L5 0L0 5L5 10L0 15L5 20L10 15L15 20L20 15L15 10L20 5L15 0L10 5Z" fill="#040922"/></g><g transform="translate(167,100.2) scale(1.67) rotate(0)"><path d="M10 5L5 0L0 5L5 10L0 15L5 20L10 15L15 20L20 15L15 10L20 5L15 0L10 5Z" fill="#040c2a"/></g><g transform="translate(200.4,66.8) scale(3.34) rotate(0)"><path d="M10 5L5 0L0 5L5 10L0 15L5 20L10 15L15 20L20 15L15 10L20 5L15 0L10 5Z" fill="#1434b9"/></g><g transform="translate(267.2,66.8) scale(3.34) rotate(0)"><path d="M10 5L5 0L0 5L5 10L0 15L5 20L10 15L15 20L20 15L15 10L20 5L15 0L10 5Z" fill="#06103a"/></g><g transform="translate(334,66.8) scale(3.34) rotate(0)"><path d="M10 5L5 0L0 5L5 10L0 15L5 20L10 15L15 20L20 15L15 10L20 5L15 0L10 5Z" fill="#0a195a"/></g><g transform="translate(400.8,66.8) scale(3.34) rotate(0)"><path d="M10 5L5 0L0 5L5 10L0 15L5 20L10 15L15 20L20 15L15 10L20 5L15 0L10 5Z" fill="#e7305b"/></g><rect x="467.59999999999997" y="66.8" width="66.8" height="66.8" fill="#000000"/><g transform="translate(467.6,66.8) scale(1.67) rotate(0)"><path d="M10 5L5 0L0 5L5 10L0 15L5 20L10 15L15 20L20 15L15 10L20 5L15 0L10 5Z" fill="#08154b"/></g><g transform="translate(501,66.8) scale(1.67) rotate(0)"><path d="M10 5L5 0L0 5L5 10L0 15L5 20L10 15L15 20L20 15L15 10L20 5L15 0L10 5Z" fill="#1434b9"/></g><g transform="translate(467.6,100.2) scale(1.67) rotate(0)"><path d="M10 5L5 0L0 5L5 10L0 15L5 20L10 15L15 20L20 15L15 10L20 5L15 0L10 5Z" fill="#0d2177"/></g><g transform="translate(501,100.2) scale(1.67) rotate(0)"><path d="M10 5L5 0L0 5L5 10L0 15L5 20L10 15L15 20L20 15L15 10L20 5L15 0L10 5Z" fill="#122fa8"/></g><g transform="translate(534.4,66.8) scale(3.34) rotate(0)"><path d="M10 5L5 0L0 5L5 10L0 15L5 20L10 15L15 20L20 15L15 10L20 5L15 0L10 5Z" fill="#1230ac"/></g><rect x="601.1999999999999" y="66.8" width="66.8" height="66.8" fill="#000000"/><g transform="translate(601.2,66.8) scale(1.67) rotate(0)"><path d="M10 5L5 0L0 5L5 10L0 15L5 20L10 15L15 20L20 15L15 10L20 5L15 0L10 5Z" fill="#1538c7"/></g><g transform="translate(634.6,66.8) scale(1.67) rotate(0)"><path d="M10 5L5 0L0 5L5 10L0 15L5 20L10 15L15 20L20 15L15 10L20 5L15 0L10 5Z" fill="#72182d"/></g><g transform="translate(601.2,100.2) scale(1.67) rotate(0)"><path d="M10 5L5 0L0 5L5 10L0 15L5 20L10 15L15 20L20 15L15 10L20 5L15 0L10 5Z" fill="#821b34"/></g><g transform="translate(634.6,100.2) scale(1.67) rotate(0)"><path d="M10 5L5 0L0 5L5 10L0 15L5 20L10 15L15 20L20 15L15 10L20 5L15 0L10 5Z" fill="#01030a"/></g><g transform="translate(668,66.8) scale(3.34) rotate(0)"><path d="M10 5L5 0L0 5L5 10L0 15L5 20L10 15L15 20L20 15L15 10L20 5L15 0L10 5Z" fill="#25080f"/></g><g transform="translate(734.8,66.8) scale(3.34) rotate(0)"><path d="M10 5L5 0L0 5L5 10L0 15L5 20L10 15L15 20L20 15L15 10L20 5L15 0L10 5Z" fill="#3c0c18"/></g><g transform="translate(0,133.6) scale(3.34) rotate(0)"><path d="M10 5L5 0L0 5L5 10L0 15L5 20L10 15L15 20L20 15L15 10L20 5L15 0L10 5Z" fill="#07113e"/></g><g transform="translate(66.8,133.6) scale(3.34) rotate(0)"><path d="M10 5L5 0L0 5L5 10L0 15L5 20L10 15L15 20L20 15L15 10L20 5L15 0L10 5Z" fill="#a22240"/></g><g transform="translate(133.6,133.6) scale(3.34) rotate(0)"><path d="M10 5L5 0L0 5L5 10L0 15L5 20L10 15L15 20L20 15L15 10L20 5L15 0L10 5Z" fill="#071240"/></g><rect x="200.39999999999998" y="133.6" width="66.8" height="66.8" fill="#000000"/><g transform="translate(200.4,133.6) scale(1.67) rotate(0)"><path d="M10 5L5 0L0 5L5 10L0 15L5 20L10 15L15 20L20 15L15 10L20 5L15 0L10 5Z" fill="#911e39"/></g><g transform="translate(233.8,133.6) scale(1.67) rotate(0)"><path d="M10 5L5 0L0 5L5 10L0 15L5 20L10 15L15 20L20 15L15 10L20 5L15 0L10 5Z" fill="#0e2686"/></g><g transform="translate(200.4,167) scale(1.67) rotate(0)"><path d="M10 5L5 0L0 5L5 10L0 15L5 20L10 15L15 20L20 15L15 10L20 5L15 0L10 5Z" fill="#091855"/></g><g transform="translate(233.8,167) scale(1.67) rotate(0)"><path d="M10 5L5 0L0 5L5 10L0 15L5 20L10 15L15 20L20 15L15 10L20 5L15 0L10 5Z" fill="#091855"/></g><rect x="267.2" y="133.6" width="66.8" height="66.8" fill="#000000"/><g transform="translate(267.2,133.6) scale(1.67) rotate(0)"><path d="M10 5L5 0L0 5L5 10L0 15L5 20L10 15L15 20L20 15L15 10L20 5L15 0L10 5Z" fill="#390c16"/></g><g transform="translate(300.6,133.6) scale(1.67) rotate(0)"><path d="M10 5L5 0L0 5L5 10L0 15L5 20L10 15L15 20L20 15L15 10L20 5L15 0L10 5Z" fill="#631527"/></g><g transform="translate(267.2,167) scale(1.67) rotate(0)"><path d="M10 5L5 0L0 5L5 10L0 15L5 20L10 15L15 20L20 15L15 10L20 5L15 0L10 5Z" fill="#1433b7"/></g><g transform="translate(300.6,167) scale(1.67) rotate(0)"><path d="M10 5L5 0L0 5L5 10L0 15L5 20L10 15L15 20L20 15L15 10L20 5L15 0L10 5Z" fill="#1331ae"/></g><g transform="translate(334,133.6) scale(3.34) rotate(0)"><path d="M10 5L5 0L0 5L5 10L0 15L5 20L10 15L15 20L20 15L15 10L20 5L15 0L10 5Z" fill="#0e2583"/></g><g transform="translate(400.8,133.6) scale(3.34) rotate(0)"><path d="M10 5L5 0L0 5L5 10L0 15L5 20L10 15L15 20L20 15L15 10L20 5L15 0L10 5Z" fill="#112da0"/></g><g transform="translate(467.6,133.6) scale(3.34) rotate(0)"><path d="M10 5L5 0L0 5L5 10L0 15L5 20L10 15L15 20L20 15L15 10L20 5L15 0L10 5Z" fill="#050c2a"/></g><g transform="translate(534.4,133.6) scale(3.34) rotate(0)"><path d="M10 5L5 0L0 5L5 10L0 15L5 20L10 15L15 20L20 15L15 10L20 5L15 0L10 5Z" fill="#0f2689"/></g><rect x="601.1999999999999" y="133.6" width="66.8" height="66.8" fill="#000000"/><g transform="translate(601.2,133.6) scale(1.67) rotate(0)"><path d="M10 5L5 0L0 5L5 10L0 15L5 20L10 15L15 20L20 15L15 10L20 5L15 0L10 5Z" fill="#ae2445"/></g><g transform="translate(634.6,133.6) scale(1.67) rotate(0)"><path d="M10 5L5 0L0 5L5 10L0 15L5 20L10 15L15 20L20 15L15 10L20 5L15 0L10 5Z" fill="#1332b2"/></g><g transform="translate(601.2,167) scale(1.67) rotate(0)"><path d="M10 5L5 0L0 5L5 10L0 15L5 20L10 15L15 20L20 15L15 10L20 5L15 0L10 5Z" fill="#08154b"/></g><g transform="translate(634.6,167) scale(1.67) rotate(0)"><path d="M10 5L5 0L0 5L5 10L0 15L5 20L10 15L15 20L20 15L15 10L20 5L15 0L10 5Z" fill="#e12f59"/></g><g transform="translate(668,133.6) scale(3.34) rotate(0)"><path d="M10 5L5 0L0 5L5 10L0 15L5 20L10 15L15 20L20 15L15 10L20 5L15 0L10 5Z" fill="#591223"/></g><g transform="translate(734.8,133.6) scale(3.34) rotate(0)"><path d="M10 5L5 0L0 5L5 10L0 15L5 20L10 15L15 20L20 15L15 10L20 5L15 0L10 5Z" fill="#1538c8"/></g><g transform="translate(0,200.4) scale(3.34) rotate(0)"><path d="M10 5L5 0L0 5L5 10L0 15L5 20L10 15L15 20L20 15L15 10L20 5L15 0L10 5Z" fill="#0a0204"/></g><g transform="translate(66.8,200.4) scale(3.34) rotate(0)"><path d="M10 5L5 0L0 5L5 10L0 15L5 20L10 15L15 20L20 15L15 10L20 5L15 0L10 5Z" fill="#581223"/></g><g transform="translate(133.6,200.4) scale(3.34) rotate(0)"><path d="M10 5L5 0L0 5L5 10L0 15L5 20L10 15L15 20L20 15L15 10L20 5L15 0L10 5Z" fill="#be274b"/></g><g transform="translate(200.4,200.4) scale(3.34) rotate(0)"><path d="M10 5L5 0L0 5L5 10L0 15L5 20L10 15L15 20L20 15L15 10L20 5L15 0L10 5Z" fill="#102a95"/></g><rect x="267.2" y="200.39999999999998" width="66.8" height="66.8" fill="#000000"/><g transform="translate(267.2,200.4) scale(1.67) rotate(0)"><path d="M10 5L5 0L0 5L5 10L0 15L5 20L10 15L15 20L20 15L15 10L20 5L15 0L10 5Z" fill="#07113d"/></g><g transform="translate(300.6,200.4) scale(1.67) rotate(0)"><path d="M10 5L5 0L0 5L5 10L0 15L5 20L10 15L15 20L20 15L15 10L20 5L15 0L10 5Z" fill="#ad2444"/></g><g transform="translate(267.2,233.8) scale(1.67) rotate(0)"><path d="M10 5L5 0L0 5L5 10L0 15L5 20L10 15L15 20L20 15L15 10L20 5L15 0L10 5Z" fill="#170509"/></g><g transform="translate(300.6,233.8) scale(1.67) rotate(0)"><path d="M10 5L5 0L0 5L5 10L0 15L5 20L10 15L15 20L20 15L15 10L20 5L15 0L10 5Z" fill="#430e1b"/></g><g transform="translate(334,200.4) scale(3.34) rotate(0)"><path d="M10 5L5 0L0 5L5 10L0 15L5 20L10 15L15 20L20 15L15 10L20 5L15 0L10 5Z" fill="#102b99"/></g><g transform="translate(400.8,200.4) scale(3.34) rotate(0)"><path d="M10 5L5 0L0 5L5 10L0 15L5 20L10 15L15 20L20 15L15 10L20 5L15 0L10 5Z" fill="#112c9e"/></g><g transform="translate(467.6,200.4) scale(3.34) rotate(0)"><path d="M10 5L5 0L0 5L5 10L0 15L5 20L10 15L15 20L20 15L15 10L20 5L15 0L10 5Z" fill="#f63361"/></g><rect x="534.4" y="200.39999999999998" width="66.8" height="66.8" fill="#000000"/><g transform="translate(534.4,200.4) scale(1.67) rotate(0)"><path d="M10 5L5 0L0 5L5 10L0 15L5 20L10 15L15 20L20 15L15 10L20 5L15 0L10 5Z" fill="#bb274a"/></g><g transform="translate(567.8,200.4) scale(1.67) rotate(0)"><path d="M10 5L5 0L0 5L5 10L0 15L5 20L10 15L15 20L20 15L15 10L20 5L15 0L10 5Z" fill="#040b27"/></g><g transform="translate(534.4,233.8) scale(1.67) rotate(0)"><path d="M10 5L5 0L0 5L5 10L0 15L5 20L10 15L15 20L20 15L15 10L20 5L15 0L10 5Z" fill="#040c2a"/></g><g transform="translate(567.8,233.8) scale(1.67) rotate(0)"><path d="M10 5L5 0L0 5L5 10L0 15L5 20L10 15L15 20L20 15L15 10L20 5L15 0L10 5Z" fill="#091754"/></g><g transform="translate(601.2,200.4) scale(3.34) rotate(0)"><path d="M10 5L5 0L0 5L5 10L0 15L5 20L10 15L15 20L20 15L15 10L20 5L15 0L10 5Z" fill="#0e2482"/></g><rect x="668" y="200.39999999999998" width="66.8" height="66.8" fill="#000000"/><g transform="translate(668,200.4) scale(1.67) rotate(0)"><path d="M10 5L5 0L0 5L5 10L0 15L5 20L10 15L15 20L20 15L15 10L20 5L15 0L10 5Z" fill="#fb3463"/></g><g transform="translate(701.4,200.4) scale(1.67) rotate(0)"><path d="M10 5L5 0L0 5L5 10L0 15L5 20L10 15L15 20L20 15L15 10L20 5L15 0L10 5Z" fill="#9c203e"/></g><g transform="translate(668,233.8) scale(1.67) rotate(0)"><path d="M10 5L5 0L0 5L5 10L0 15L5 20L10 15L15 20L20 15L15 10L20 5L15 0L10 5Z" fill="#340b15"/></g><g transform="translate(701.4,233.8) scale(1.67) rotate(0)"><path d="M10 5L5 0L0 5L5 10L0 15L5 20L10 15L15 20L20 15L15 10L20 5L15 0L10 5Z" fill="#050c2c"/></g><g transform="translate(734.8,200.4) scale(3.34) rotate(0)"><path d="M10 5L5 0L0 5L5 10L0 15L5 20L10 15L15 20L20 15L15 10L20 5L15 0L10 5Z" fill="#8c1d38"/></g><rect x="0" y="267.2" width="66.8" height="66.8" fill="#000000"/><g transform="translate(0,267.2) scale(1.67) rotate(0)"><path d="M10 5L5 0L0 5L5 10L0 15L5 20L10 15L15 20L20 15L15 10L20 5L15 0L10 5Z" fill="#420e1a"/></g><g transform="translate(33.4,267.2) scale(1.67) rotate(0)"><path d="M10 5L5 0L0 5L5 10L0 15L5 20L10 15L15 20L20 15L15 10L20 5L15 0L10 5Z" fill="#0b1d69"/></g><g transform="translate(0,300.6) scale(1.67) rotate(0)"><path d="M10 5L5 0L0 5L5 10L0 15L5 20L10 15L15 20L20 15L15 10L20 5L15 0L10 5Z" fill="#ae2445"/></g><g transform="translate(33.4,300.6) scale(1.67) rotate(0)"><path d="M10 5L5 0L0 5L5 10L0 15L5 20L10 15L15 20L20 15L15 10L20 5L15 0L10 5Z" fill="#390c17"/></g><g transform="translate(66.8,267.2) scale(3.34) rotate(0)"><path d="M10 5L5 0L0 5L5 10L0 15L5 20L10 15L15 20L20 15L15 10L20 5L15 0L10 5Z" fill="#1333b5"/></g><g transform="translate(133.6,267.2) scale(3.34) rotate(0)"><path d="M10 5L5 0L0 5L5 10L0 15L5 20L10 15L15 20L20 15L15 10L20 5L15 0L10 5Z" fill="#0b1c64"/></g><rect x="200.39999999999998" y="267.2" width="66.8" height="66.8" fill="#000000"/><g transform="translate(200.4,267.2) scale(1.67) rotate(0)"><path d="M10 5L5 0L0 5L5 10L0 15L5 20L10 15L15 20L20 15L15 10L20 5L15 0L10 5Z" fill="#102b9b"/></g><g transform="translate(233.8,267.2) scale(1.67) rotate(0)"><path d="M10 5L5 0L0 5L5 10L0 15L5 20L10 15L15 20L20 15L15 10L20 5L15 0L10 5Z" fill="#01040d"/></g><g transform="translate(200.4,300.6) scale(1.67) rotate(0)"><path d="M10 5L5 0L0 5L5 10L0 15L5 20L10 15L15 20L20 15L15 10L20 5L15 0L10 5Z" fill="#0f2890"/></g><g transform="translate(233.8,300.6) scale(1.67) rotate(0)"><path d="M10 5L5 0L0 5L5 10L0 15L5 20L10 15L15 20L20 15L15 10L20 5L15 0L10 5Z" fill="#06113c"/></g><rect x="267.2" y="267.2" width="66.8" height="66.8" fill="#000000"/><g transform="translate(267.2,267.2) scale(1.67) rotate(0)"><path d="M10 5L5 0L0 5L5 10L0 15L5 20L10 15L15 20L20 15L15 10L20 5L15 0L10 5Z" fill="#27080f"/></g><g transform="translate(300.6,267.2) scale(1.67) rotate(0)"><path d="M10 5L5 0L0 5L5 10L0 15L5 20L10 15L15 20L20 15L15 10L20 5L15 0L10 5Z" fill="#1538c8"/></g><g transform="translate(267.2,300.6) scale(1.67) rotate(0)"><path d="M10 5L5 0L0 5L5 10L0 15L5 20L10 15L15 20L20 15L15 10L20 5L15 0L10 5Z" fill="#030718"/></g><g transform="translate(300.6,300.6) scale(1.67) rotate(0)"><path d="M10 5L5 0L0 5L5 10L0 15L5 20L10 15L15 20L20 15L15 10L20 5L15 0L10 5Z" fill="#080203"/></g><rect x="334" y="267.2" width="66.8" height="66.8" fill="#000000"/><g transform="translate(334,267.2) scale(1.67) rotate(0)"><path d="M10 5L5 0L0 5L5 10L0 15L5 20L10 15L15 20L20 15L15 10L20 5L15 0L10 5Z" fill="#b92649"/></g><g transform="translate(367.4,267.2) scale(1.67) rotate(0)"><path d="M10 5L5 0L0 5L5 10L0 15L5 20L10 15L15 20L20 15L15 10L20 5L15 0L10 5Z" fill="#cd2b51"/></g><g transform="translate(334,300.6) scale(1.67) rotate(0)"><path d="M10 5L5 0L0 5L5 10L0 15L5 20L10 15L15 20L20 15L15 10L20 5L15 0L10 5Z" fill="#bd274b"/></g><g transform="translate(367.4,300.6) scale(1.67) rotate(0)"><path d="M10 5L5 0L0 5L5 10L0 15L5 20L10 15L15 20L20 15L15 10L20 5L15 0L10 5Z" fill="#cc2a51"/></g><g transform="translate(400.8,267.2) scale(3.34) rotate(0)"><path d="M10 5L5 0L0 5L5 10L0 15L5 20L10 15L15 20L20 15L15 10L20 5L15 0L10 5Z" fill="#020617"/></g><g transform="translate(467.6,267.2) scale(3.34) rotate(0)"><path d="M10 5L5 0L0 5L5 10L0 15L5 20L10 15L15 20L20 15L15 10L20 5L15 0L10 5Z" fill="#0c1f70"/></g><g transform="translate(534.4,267.2) scale(3.34) rotate(0)"><path d="M10 5L5 0L0 5L5 10L0 15L5 20L10 15L15 20L20 15L15 10L20 5L15 0L10 5Z" fill="#d12b53"/></g><rect x="601.1999999999999" y="267.2" width="66.8" height="66.8" fill="#000000"/><g transform="translate(601.2,267.2) scale(1.67) rotate(0)"><path d="M10 5L5 0L0 5L5 10L0 15L5 20L10 15L15 20L20 15L15 10L20 5L15 0L10 5Z" fill="#831b34"/></g><g transform="translate(634.6,267.2) scale(1.67) rotate(0)"><path d="M10 5L5 0L0 5L5 10L0 15L5 20L10 15L15 20L20 15L15 10L20 5L15 0L10 5Z" fill="#0a0204"/></g><g transform="translate(601.2,300.6) scale(1.67) rotate(0)"><path d="M10 5L5 0L0 5L5 10L0 15L5 20L10 15L15 20L20 15L15 10L20 5L15 0L10 5Z" fill="#0c2072"/></g><g transform="translate(634.6,300.6) scale(1.67) rotate(0)"><path d="M10 5L5 0L0 5L5 10L0 15L5 20L10 15L15 20L20 15L15 10L20 5L15 0L10 5Z" fill="#78192f"/></g><g transform="translate(668,267.2) scale(3.34) rotate(0)"><path d="M10 5L5 0L0 5L5 10L0 15L5 20L10 15L15 20L20 15L15 10L20 5L15 0L10 5Z" fill="#c92a50"/></g><g transform="translate(734.8,267.2) scale(3.34) rotate(0)"><path d="M10 5L5 0L0 5L5 10L0 15L5 20L10 15L15 20L20 15L15 10L20 5L15 0L10 5Z" fill="#24080e"/></g><g transform="translate(0,334) scale(3.34) rotate(0)"><path d="M10 5L5 0L0 5L5 10L0 15L5 20L10 15L15 20L20 15L15 10L20 5L15 0L10 5Z" fill="#0d2177"/></g><rect x="66.8" y="334" width="66.8" height="66.8" fill="#000000"/><g transform="translate(66.8,334) scale(1.67) rotate(0)"><path d="M10 5L5 0L0 5L5 10L0 15L5 20L10 15L15 20L20 15L15 10L20 5L15 0L10 5Z" fill="#1536c1"/></g><g transform="translate(100.2,334) scale(1.67) rotate(0)"><path d="M10 5L5 0L0 5L5 10L0 15L5 20L10 15L15 20L20 15L15 10L20 5L15 0L10 5Z" fill="#7e1a32"/></g><g transform="translate(66.8,367.4) scale(1.67) rotate(0)"><path d="M10 5L5 0L0 5L5 10L0 15L5 20L10 15L15 20L20 15L15 10L20 5L15 0L10 5Z" fill="#050e33"/></g><g transform="translate(100.2,367.4) scale(1.67) rotate(0)"><path d="M10 5L5 0L0 5L5 10L0 15L5 20L10 15L15 20L20 15L15 10L20 5L15 0L10 5Z" fill="#1537c4"/></g><rect x="133.6" y="334" width="66.8" height="66.8" fill="#000000"/><g transform="translate(133.6,334) scale(1.67) rotate(0)"><path d="M10 5L5 0L0 5L5 10L0 15L5 20L10 15L15 20L20 15L15 10L20 5L15 0L10 5Z" fill="#010208"/></g><g transform="translate(167,334) scale(1.67) rotate(0)"><path d="M10 5L5 0L0 5L5 10L0 15L5 20L10 15L15 20L20 15L15 10L20 5L15 0L10 5Z" fill="#8c1d38"/></g><g transform="translate(133.6,367.4) scale(1.67) rotate(0)"><path d="M10 5L5 0L0 5L5 10L0 15L5 20L10 15L15 20L20 15L15 10L20 5L15 0L10 5Z" fill="#0d237d"/></g><g transform="translate(167,367.4) scale(1.67) rotate(0)"><path d="M10 5L5 0L0 5L5 10L0 15L5 20L10 15L15 20L20 15L15 10L20 5L15 0L10 5Z" fill="#6c172b"/></g><rect x="200.39999999999998" y="334" width="66.8" height="66.8" fill="#000000"/><g transform="translate(200.4,334) scale(1.67) rotate(0)"><path d="M10 5L5 0L0 5L5 10L0 15L5 20L10 15L15 20L20 15L15 10L20 5L15 0L10 5Z" fill="#040b27"/></g><g transform="translate(233.8,334) scale(1.67) rotate(0)"><path d="M10 5L5 0L0 5L5 10L0 15L5 20L10 15L15 20L20 15L15 10L20 5L15 0L10 5Z" fill="#0a195a"/></g><g transform="translate(200.4,367.4) scale(1.67) rotate(0)"><path d="M10 5L5 0L0 5L5 10L0 15L5 20L10 15L15 20L20 15L15 10L20 5L15 0L10 5Z" fill="#611426"/></g><g transform="translate(233.8,367.4) scale(1.67) rotate(0)"><path d="M10 5L5 0L0 5L5 10L0 15L5 20L10 15L15 20L20 15L15 10L20 5L15 0L10 5Z" fill="#0e2586"/></g><g transform="translate(267.2,334) scale(3.34) rotate(0)"><path d="M10 5L5 0L0 5L5 10L0 15L5 20L10 15L15 20L20 15L15 10L20 5L15 0L10 5Z" fill="#050c2b"/></g><rect x="334" y="334" width="66.8" height="66.8" fill="#000000"/><g transform="translate(334,334) scale(1.67) rotate(0)"><path d="M10 5L5 0L0 5L5 10L0 15L5 20L10 15L15 20L20 15L15 10L20 5L15 0L10 5Z" fill="#410e1a"/></g><g transform="translate(367.4,334) scale(1.67) rotate(0)"><path d="M10 5L5 0L0 5L5 10L0 15L5 20L10 15L15 20L20 15L15 10L20 5L15 0L10 5Z" fill="#0b1d67"/></g><g transform="translate(334,367.4) scale(1.67) rotate(0)"><path d="M10 5L5 0L0 5L5 10L0 15L5 20L10 15L15 20L20 15L15 10L20 5L15 0L10 5Z" fill="#671529"/></g><g transform="translate(367.4,367.4) scale(1.67) rotate(0)"><path d="M10 5L5 0L0 5L5 10L0 15L5 20L10 15L15 20L20 15L15 10L20 5L15 0L10 5Z" fill="#f73362"/></g><g transform="translate(400.8,334) scale(3.34) rotate(0)"><path d="M10 5L5 0L0 5L5 10L0 15L5 20L10 15L15 20L20 15L15 10L20 5L15 0L10 5Z" fill="#380c16"/></g><g transform="translate(467.6,334) scale(3.34) rotate(0)"><path d="M10 5L5 0L0 5L5 10L0 15L5 20L10 15L15 20L20 15L15 10L20 5L15 0L10 5Z" fill="#370c16"/></g><g transform="translate(534.4,334) scale(3.34) rotate(0)"><path d="M10 5L5 0L0 5L5 10L0 15L5 20L10 15L15 20L20 15L15 10L20 5L15 0L10 5Z" fill="#861c35"/></g><g transform="translate(601.2,334) scale(3.34) rotate(0)"><path d="M10 5L5 0L0 5L5 10L0 15L5 20L10 15L15 20L20 15L15 10L20 5L15 0L10 5Z" fill="#9f213f"/></g><g transform="translate(668,334) scale(3.34) rotate(0)"><path d="M10 5L5 0L0 5L5 10L0 15L5 20L10 15L15 20L20 15L15 10L20 5L15 0L10 5Z" fill="#040a24"/></g><g transform="translate(734.8,334) scale(3.34) rotate(0)"><path d="M10 5L5 0L0 5L5 10L0 15L5 20L10 15L15 20L20 15L15 10L20 5L15 0L10 5Z" fill="#b42547"/></g><g transform="translate(0,400.8) scale(3.34) rotate(0)"><path d="M10 5L5 0L0 5L5 10L0 15L5 20L10 15L15 20L20 15L15 10L20 5L15 0L10 5Z" fill="#122ea6"/></g><g transform="translate(66.8,400.8) scale(3.34) rotate(0)"><path d="M10 5L5 0L0 5L5 10L0 15L5 20L10 15L15 20L20 15L15 10L20 5L15 0L10 5Z" fill="#420e1a"/></g><g transform="translate(133.6,400.8) scale(3.34) rotate(0)"><path d="M10 5L5 0L0 5L5 10L0 15L5 20L10 15L15 20L20 15L15 10L20 5L15 0L10 5Z" fill="#661529"/></g><g transform="translate(200.4,400.8) scale(3.34) rotate(0)"><path d="M10 5L5 0L0 5L5 10L0 15L5 20L10 15L15 20L20 15L15 10L20 5L15 0L10 5Z" fill="#0f278d"/></g><g transform="translate(267.2,400.8) scale(3.34) rotate(0)"><path d="M10 5L5 0L0 5L5 10L0 15L5 20L10 15L15 20L20 15L15 10L20 5L15 0L10 5Z" fill="#e22f59"/></g><g transform="translate(334,400.8) scale(3.34) rotate(0)"><path d="M10 5L5 0L0 5L5 10L0 15L5 20L10 15L15 20L20 15L15 10L20 5L15 0L10 5Z" fill="#f33260"/></g><g transform="translate(400.8,400.8) scale(3.34) rotate(0)"><path d="M10 5L5 0L0 5L5 10L0 15L5 20L10 15L15 20L20 15L15 10L20 5L15 0L10 5Z" fill="#b52648"/></g><g transform="translate(467.6,400.8) scale(3.34) rotate(0)"><path d="M10 5L5 0L0 5L5 10L0 15L5 20L10 15L15 20L20 15L15 10L20 5L15 0L10 5Z" fill="#1332b4"/></g><g transform="translate(534.4,400.8) scale(3.34) rotate(0)"><path d="M10 5L5 0L0 5L5 10L0 15L5 20L10 15L15 20L20 15L15 10L20 5L15 0L10 5Z" fill="#112da1"/></g><g transform="translate(601.2,400.8) scale(3.34) rotate(0)"><path d="M10 5L5 0L0 5L5 10L0 15L5 20L10 15L15 20L20 15L15 10L20 5L15 0L10 5Z" fill="#911e39"/></g><rect x="668" y="400.79999999999995" width="66.8" height="66.8" fill="#000000"/><g transform="translate(668,400.8) scale(1.67) rotate(0)"><path d="M10 5L5 0L0 5L5 10L0 15L5 20L10 15L15 20L20 15L15 10L20 5L15 0L10 5Z" fill="#112d9f"/></g><g transform="translate(701.4,400.8) scale(1.67) rotate(0)"><path d="M10 5L5 0L0 5L5 10L0 15L5 20L10 15L15 20L20 15L15 10L20 5L15 0L10 5Z" fill="#050e32"/></g><g transform="translate(668,434.2) scale(1.67) rotate(0)"><path d="M10 5L5 0L0 5L5 10L0 15L5 20L10 15L15 20L20 15L15 10L20 5L15 0L10 5Z" fill="#0c2071"/></g><g transform="translate(701.4,434.2) scale(1.67) rotate(0)"><path d="M10 5L5 0L0 5L5 10L0 15L5 20L10 15L15 20L20 15L15 10L20 5L15 0L10 5Z" fill="#06113d"/></g><g transform="translate(734.8,400.8) scale(3.34) rotate(0)"><path d="M10 5L5 0L0 5L5 10L0 15L5 20L10 15L15 20L20 15L15 10L20 5L15 0L10 5Z" fill="#0f2891"/></g><g transform="translate(0,467.6) scale(3.34) rotate(0)"><path d="M10 5L5 0L0 5L5 10L0 15L5 20L10 15L15 20L20 15L15 10L20 5L15 0L10 5Z" fill="#c92a50"/></g><g transform="translate(66.8,467.6) scale(3.34) rotate(0)"><path d="M10 5L5 0L0 5L5 10L0 15L5 20L10 15L15 20L20 15L15 10L20 5L15 0L10 5Z" fill="#081447"/></g><g transform="translate(133.6,467.6) scale(3.34) rotate(0)"><path d="M10 5L5 0L0 5L5 10L0 15L5 20L10 15L15 20L20 15L15 10L20 5L15 0L10 5Z" fill="#0b1c65"/></g><g transform="translate(200.4,467.6) scale(3.34) rotate(0)"><path d="M10 5L5 0L0 5L5 10L0 15L5 20L10 15L15 20L20 15L15 10L20 5L15 0L10 5Z" fill="#081448"/></g><g transform="translate(267.2,467.6) scale(3.34) rotate(0)"><path d="M10 5L5 0L0 5L5 10L0 15L5 20L10 15L15 20L20 15L15 10L20 5L15 0L10 5Z" fill="#040a22"/></g><g transform="translate(334,467.6) scale(3.34) rotate(0)"><path d="M10 5L5 0L0 5L5 10L0 15L5 20L10 15L15 20L20 15L15 10L20 5L15 0L10 5Z" fill="#183edf"/></g><rect x="400.79999999999995" y="467.59999999999997" width="66.8" height="66.8" fill="#000000"/><g transform="translate(400.8,467.6) scale(1.67) rotate(0)"><path d="M10 5L5 0L0 5L5 10L0 15L5 20L10 15L15 20L20 15L15 10L20 5L15 0L10 5Z" fill="#3c0d18"/></g><g transform="translate(434.2,467.6) scale(1.67) rotate(0)"><path d="M10 5L5 0L0 5L5 10L0 15L5 20L10 15L15 20L20 15L15 10L20 5L15 0L10 5Z" fill="#060f36"/></g><g transform="translate(400.8,501) scale(1.67) rotate(0)"><path d="M10 5L5 0L0 5L5 10L0 15L5 20L10 15L15 20L20 15L15 10L20 5L15 0L10 5Z" fill="#f33260"/></g><g transform="translate(434.2,501) scale(1.67) rotate(0)"><path d="M10 5L5 0L0 5L5 10L0 15L5 20L10 15L15 20L20 15L15 10L20 5L15 0L10 5Z" fill="#9b203d"/></g><g transform="translate(467.6,467.6) scale(3.34) rotate(0)"><path d="M10 5L5 0L0 5L5 10L0 15L5 20L10 15L15 20L20 15L15 10L20 5L15 0L10 5Z" fill="#a72342"/></g><g transform="translate(534.4,467.6) scale(3.34) rotate(0)"><path d="M10 5L5 0L0 5L5 10L0 15L5 20L10 15L15 20L20 15L15 10L20 5L15 0L10 5Z" fill="#010209"/></g><g transform="translate(601.2,467.6) scale(3.34) rotate(0)"><path d="M10 5L5 0L0 5L5 10L0 15L5 20L10 15L15 20L20 15L15 10L20 5L15 0L10 5Z" fill="#ee315e"/></g><g transform="translate(668,467.6) scale(3.34) rotate(0)"><path d="M10 5L5 0L0 5L5 10L0 15L5 20L10 15L15 20L20 15L15 10L20 5L15 0L10 5Z" fill="#ac2444"/></g><g transform="translate(734.8,467.6) scale(3.34) rotate(0)"><path d="M10 5L5 0L0 5L5 10L0 15L5 20L10 15L15 20L20 15L15 10L20 5L15 0L10 5Z" fill="#08164d"/></g></g></svg>